# xmcd
#
# Track frame offsets: 
#        150
#        23088
#        56111
#        75593
#        92193
#        116713
#        133027
#        152178
#        179915
#        198433
#
# Disc length: 3116 seconds
#
# Revision: 1
# Processed by: cddbd v1.5.2PL0 Copyright (c) Steve Scherf et al.
# Submitted via: ExactAudioCopyFreeDBPlugin 1.0
#
DISCID=8c0c2a0a
DTITLE=Teodora and Jean Stoian - Meaning Of Blue
DYEAR=0
DGENRE=Jazz
TTITLE0=Black Coffee
TTITLE1=Blame It On My Youth
TTITLE2=How High The Moon
TTITLE3=They Can't Take That Away From Me
TTITLE4=Beautiful Love
TTITLE5=Billie's Bounce
TTITLE6=Like Someone In Love
TTITLE7=Misty
TTITLE8=My Romance
TTITLE9=The Curse
EXTD=YEAR: 0
EXTT0=
EXTT1=
EXTT2=
EXTT3=
EXTT4=
EXTT5=
EXTT6=
EXTT7=
EXTT8=
EXTT9=
PLAYORDER=
